Input #0, matroska,webm, from 'The Matrix (1999).mkv':
  Metadata:
    encoder         : libmkv 0.6.4.1
  Duration: 02:16:21.29, start: 0.000000, bitrate: 1890 kb/s
    Chapter #0:0: start 0.000000, end 206.278000
    Metadata:
      title           : Chapter  1
    Chapter #0:1: start 206.278000, end 396.194878
    Metadata:
      title           : Chapter  2
    Chapter #0:2: start 396.194878, end 583.181678
    Metadata:
      title           : Chapter  3
    Chapter #0:3: start 583.181678, end 718.817178
    Metadata:
      title           : Chapter  4
    Chapter #0:4: start 718.817178, end 1007.972711
    Metadata:
      title           : Chapter  5
    Chapter #0:5: start 1007.972711, end 1293.057511
    Metadata:
      title           : Chapter  6
    Chapter #0:6: start 1293.057511, end 1509.140044
    Metadata:
      title           : Chapter  7
    Chapter #0:7: start 1509.140044, end 1731.662344
    Metadata:
      title           : Chapter  8
    Chapter #0:8: start 1731.662344, end 1945.752889
    Metadata:
      title           : Chapter  9
    Chapter #0:9: start 1945.752889, end 2122.282122
    Metadata:
      title           : Chapter 10
    Chapter #0:10: start 2122.282122, end 2321.314289
    Metadata:
      title           : Chapter 11
    Chapter #0:11: start 2321.314289, end 2663.155789
    Metadata:
      title           : Chapter 12
    Chapter #0:12: start 2663.155789, end 2793.953122
    Metadata:
      title           : Chapter 13
    Chapter #0:13: start 2793.953122, end 2938.380722
    Metadata:
      title           : Chapter 14
    Chapter #0:14: start 2938.380722, end 3211.867889
    Metadata:
      title           : Chapter 15
    Chapter #0:15: start 3211.867889, end 3392.548389
    Metadata:
      title           : Chapter 16
    Chapter #0:16: start 3392.548389, end 3541.697389
    Metadata:
      title           : Chapter 17
    Chapter #0:17: start 3541.697389, end 3669.024589
    Metadata:
      title           : Chapter 18
    Chapter #0:18: start 3669.024589, end 3917.072389
    Metadata:
      title           : Chapter 19
    Chapter #0:19: start 3917.072389, end 4067.272422
    Metadata:
      title           : Chapter 20
    Chapter #0:20: start 4067.272422, end 4354.019911
    Metadata:
      title           : Chapter 21
    Chapter #0:21: start 4354.019911, end 4670.135711
    Metadata:
      title           : Chapter 22
    Chapter #0:22: start 4670.135711, end 4863.660033
    Metadata:
      title           : Chapter 23
    Chapter #0:23: start 4863.660033, end 5105.899267
    Metadata:
      title           : Chapter 24
    Chapter #0:24: start 5105.899267, end 5385.511933
    Metadata:
      title           : Chapter 25
    Chapter #0:25: start 5385.511933, end 5488.114433
    Metadata:
      title           : Chapter 26
    Chapter #0:26: start 5488.114433, end 5845.805100
    Metadata:
      title           : Chapter 27
    Chapter #0:27: start 5845.805100, end 6065.357744
    Metadata:
      title           : Chapter 28
    Chapter #0:28: start 6065.357744, end 6260.917911
    Metadata:
      title           : Chapter 29
    Chapter #0:29: start 6260.917911, end 6421.042056
    Metadata:
      title           : Chapter 30
    Chapter #0:30: start 6421.042056, end 6618.889689
    Metadata:
      title           : Chapter 31
    Chapter #0:31: start 6618.889689, end 6777.062922
    Metadata:
      title           : Chapter 32
    Chapter #0:32: start 6777.062922, end 6997.415056
    Metadata:
      title           : Chapter 33
    Chapter #0:33: start 6997.415056, end 7129.914089
    Metadata:
      title           : Chapter 34
    Chapter #0:34: start 7129.914089, end 7347.931889
    Metadata:
      title           : Chapter 35
    Chapter #0:35: start 7347.931889, end 7542.292722
    Metadata:
      title           : Chapter 36
    Chapter #0:36: start 7542.292722, end 7727.310889
    Metadata:
      title           : Chapter 37
    Chapter #0:37: start 7727.310889, end 8181.289500
    Metadata:
      title           : Chapter 38
    Stream #0:0(eng): Video: h264 (Main), yuv420p(tv, smpte170m/smpte170m/bt709, progressive), 720x358 [SAR 853:720 DAR 853:358], SAR 186:157 DAR 66960:28103, 23.98 fps, 23.98 tbr, 1k tbn, 180k tbc (default)
    Stream #0:1(eng): Audio: ac3, 48000 Hz, 5.1(side), fltp, 384 kb/s (default)
    Stream #0:2(eng): Subtitle: dvd_subtitle, 720x480
[Parsed_idet_0 @ 0x6830740] Repeated Fields: Neither:     0 Top:     0 Bottom:     0
[Parsed_idet_0 @ 0x6830740] Single frame detection: TFF:     0 BFF:     0 Progressive:     0 Undetermined:     0
[Parsed_idet_0 @ 0x6830740] Multi frame detection: TFF:     0 BFF:     0 Progressive:     0 Undetermined:     0
Stream mapping:
  Stream #0:0 (h264) -> idet (graph 0)
  idet (graph 0) -> Stream #0:0 (wrapped_avframe)
  Stream #0:1 -> #0:1 (ac3 (native) -> pcm_s16le (native))
Output #0, null, to 'pipe:':
  Metadata:
    encoder         : Lavf58.17.101
    Chapter #0:0: start 0.000000, end 118.817178
    Metadata:
      title           : Chapter  4
    Chapter #0:1: start 118.817178, end 407.972711
    Metadata:
      title           : Chapter  5
    Chapter #0:2: start 407.972711, end 693.057511
    Metadata:
      title           : Chapter  6
    Chapter #0:3: start 693.057511, end 909.140044
    Metadata:
      title           : Chapter  7
    Chapter #0:4: start 909.140044, end 1131.662344
    Metadata:
      title           : Chapter  8
    Chapter #0:5: start 1131.662344, end 1345.752889
    Metadata:
      title           : Chapter  9
    Chapter #0:6: start 1345.752889, end 1522.282122
    Metadata:
      title           : Chapter 10
    Chapter #0:7: start 1522.282122, end 1721.314289
    Metadata:
      title           : Chapter 11
    Chapter #0:8: start 1721.314289, end 2063.155789
    Metadata:
      title           : Chapter 12
    Chapter #0:9: start 2063.155789, end 2193.953122
    Metadata:
      title           : Chapter 13
    Chapter #0:10: start 2193.953122, end 2338.380722
    Metadata:
      title           : Chapter 14
    Chapter #0:11: start 2338.380722, end 2611.867889
    Metadata:
      title           : Chapter 15
    Chapter #0:12: start 2611.867889, end 2792.548389
    Metadata:
      title           : Chapter 16
    Chapter #0:13: start 2792.548389, end 2941.697389
    Metadata:
      title           : Chapter 17
    Chapter #0:14: start 2941.697389, end 3069.024589
    Metadata:
      title           : Chapter 18
    Chapter #0:15: start 3069.024589, end 3317.072389
    Metadata:
      title           : Chapter 19
    Chapter #0:16: start 3317.072389, end 3467.272422
    Metadata:
      title           : Chapter 20
    Chapter #0:17: start 3467.272422, end 3754.019911
    Metadata:
      title           : Chapter 21
    Chapter #0:18: start 3754.019911, end 4070.135711
    Metadata:
      title           : Chapter 22
    Chapter #0:19: start 4070.135711, end 4263.660033
    Metadata:
      title           : Chapter 23
    Chapter #0:20: start 4263.660033, end 4505.899267
    Metadata:
      title           : Chapter 24
    Chapter #0:21: start 4505.899267, end 4785.511933
    Metadata:
      title           : Chapter 25
    Chapter #0:22: start 4785.511933, end 4888.114433
    Metadata:
      title           : Chapter 26
    Chapter #0:23: start 4888.114433, end 5245.805100
    Metadata:
      title           : Chapter 27
    Chapter #0:24: start 5245.805100, end 5465.357744
    Metadata:
      title           : Chapter 28
    Chapter #0:25: start 5465.357744, end 5660.917911
    Metadata:
      title           : Chapter 29
    Chapter #0:26: start 5660.917911, end 5821.042056
    Metadata:
      title           : Chapter 30
    Chapter #0:27: start 5821.042056, end 6018.889689
    Metadata:
      title           : Chapter 31
    Chapter #0:28: start 6018.889689, end 6177.062922
    Metadata:
      title           : Chapter 32
    Chapter #0:29: start 6177.062922, end 6397.415056
    Metadata:
      title           : Chapter 33
    Chapter #0:30: start 6397.415056, end 6529.914089
    Metadata:
      title           : Chapter 34
    Chapter #0:31: start 6529.914089, end 6747.931889
    Metadata:
      title           : Chapter 35
    Chapter #0:32: start 6747.931889, end 6942.292722
    Metadata:
      title           : Chapter 36
    Chapter #0:33: start 6942.292722, end 7127.310889
    Metadata:
      title           : Chapter 37
    Chapter #0:34: start 7127.310889, end 7581.289500
    Metadata:
      title           : Chapter 38
    Stream #0:0: Video: wrapped_avframe, yuv420p, 720x358 [SAR 186:157 DAR 66960:28103], q=2-31, 200 kb/s, 23.98 fps, 23.98 tbn, 23.98 tbc (default)
    Metadata:
      encoder         : Lavc58.22.100 wrapped_avframe
    Stream #0:1(eng): Audio: pcm_s16le, 48000 Hz, 5.1(side), s16, 4608 kb/s (default)
    Metadata:
      encoder         : Lavc58.22.100 pcm_s16le
frame=  839 fps=730 q=-0.0 Lsize=N/A time=00:00:35.03 bitrate=N/A speed=30.5x    
video:439kB audio:19688kB subtitle:0kB other streams:0kB global headers:0kB muxing overhead: unknown
[Parsed_idet_0 @ 0x6a21640] Repeated Fields: Neither:   839 Top:     0 Bottom:     0
[Parsed_idet_0 @ 0x6a21640] Single frame detection: TFF:     0 BFF:     0 Progressive:   825 Undetermined:    14
[Parsed_idet_0 @ 0x6a21640] Multi frame detection: TFF:     0 BFF:     0 Progressive:   839 Undetermined:     0
